<svg width="28" height="28" viewBox="0 0 28 28" fill="none" xmlns="http://www.w3.org/2000/svg">
<path d="M7.87484 1.75C7.64277 1.75 7.42021 1.84219 7.25612 2.00628C7.09203 2.17038 6.99984 2.39294 6.99984 2.625C6.99984 2.85706 7.09203 3.07962 7.25612 3.24372C7.42021 3.40781 7.64277 3.5 7.87484 3.5H23.2626L2.00621 24.7564C1.6646 25.0981 1.6646 25.652 2.00621 25.9937C2.34791 26.3353 2.90186 26.3353 3.24355 25.9937L24.4999 4.73734V20.1251C24.4999 20.3571 24.5921 20.5797 24.7562 20.7438C24.9203 20.9079 25.1429 21.0001 25.3749 21.0001C25.607 21.0001 25.8295 20.9079 25.9936 20.7438C26.1577 20.5797 26.2499 20.3571 26.2499 20.1251V2.62509C26.2499 2.39303 26.1577 2.17048 25.9936 2.00639C25.8295 1.84231 25.607 1.75011 25.3749 1.75009L7.87484 1.75Z" fill="white"/>
</svg>
