<svg width="34" height="27" viewBox="0 0 34 27" fill="none" xmlns="http://www.w3.org/2000/svg">
<path d="M21.2928 0.256207C21.1287 0.0921128 20.9062 -7.43572e-05 20.6741 -7.44573e-05C20.442 -7.42044e-05 20.2195 0.0921129 20.0554 0.256207C19.8913 0.420302 19.7991 0.642861 19.7991 0.874926C19.7991 1.10699 19.8913 1.32955 20.0554 1.49364L30.9362 12.3744L0.875122 12.3744C0.391947 12.3745 0.000241581 12.7662 0.00019159 13.2494C0.000247202 13.7325 0.391952 14.1242 0.875121 14.1243L30.9362 14.1243L20.0554 25.0051C19.8913 25.1692 19.7991 25.3917 19.7991 25.6238C19.7991 25.8558 19.8913 26.0784 20.0554 26.2425C20.2195 26.4066 20.442 26.4988 20.6741 26.4988C20.9062 26.4988 21.1287 26.4066 21.2928 26.2425L33.6672 13.8681C33.8313 13.704 33.9234 13.4815 33.9234 13.2494C33.9234 13.0174 33.8313 12.7948 33.6672 12.6307L21.2928 0.256207Z" fill="white"/>
</svg>
