<svg width="40" height="40" viewBox="0 0 40 40" fill="none" xmlns="http://www.w3.org/2000/svg">
<g clip-path="url(#clip0_34_125)">
<path d="M15.4681 32.792C15.6322 32.9561 15.8547 33.0482 16.0868 33.0482C16.3189 33.0482 16.5414 32.9561 16.7055 32.792C16.8696 32.6279 16.9618 32.4053 16.9618 32.1732C16.9618 31.9412 16.8696 31.7186 16.7055 31.5545L5.82473 20.6738L35.8858 20.6737C36.369 20.6737 36.7607 20.282 36.7607 19.7988C36.7607 19.3156 36.369 18.9239 35.8858 18.9239L5.82473 18.9239L16.7055 8.04311C16.8696 7.87902 16.9618 7.65645 16.9618 7.42439C16.9618 7.19233 16.8696 6.96977 16.7055 6.80567C16.5414 6.64158 16.3189 6.54939 16.0868 6.54939C15.8547 6.54939 15.6322 6.64158 15.4681 6.80567L3.09371 19.18C2.92963 19.3441 2.83746 19.5667 2.83746 19.7988C2.83746 20.0308 2.92964 20.2534 3.09371 20.4175L15.4681 32.792Z" fill="#111111"/>
</g>
<defs>
<clipPath id="clip0_34_125">
<rect width="28" height="28" fill="white" transform="translate(19.799 39.598) rotate(-135)"/>
</clipPath>
</defs>
</svg>
