<svg width="24" height="24" viewBox="0 0 24 24" fill="none" xmlns="http://www.w3.org/2000/svg">
<path d="M19.8783 0H6.6908C5.06574 0.00180347 3.74879 1.31875 3.74699 2.94381V3.88439H3.01728C2.00206 3.88439 1.17913 4.70733 1.17913 5.72254C1.17913 6.73776 2.00206 7.56069 3.01728 7.56069H3.74699V10.1605H3.01728C2.0013 10.161 1.17816 10.9851 1.17871 12.001C1.17927 13.0161 2.00206 13.839 3.01728 13.8395H3.74699V16.4393H3.01728C2.00206 16.4393 1.17913 17.2622 1.17913 18.2775C1.17913 19.2927 2.00206 20.1156 3.01728 20.1156H3.74699V21.0562C3.74879 22.6812 5.06574 23.9982 6.6908 24H19.8783C21.5034 23.9982 22.8203 22.6812 22.8221 21.0562V2.94381C22.8203 1.31875 21.5034 0.00180347 19.8783 0ZM2.15161 5.72116C2.1521 5.24324 2.53936 4.85598 3.01728 4.85549H5.4478C5.92669 4.85549 6.31485 5.24365 6.31485 5.72254C6.31485 6.20143 5.92662 6.5896 5.4478 6.5896H3.01728C2.53846 6.58869 2.15099 6.19998 2.15161 5.72116ZM2.15161 12C2.15175 11.5215 2.5388 11.1332 3.01728 11.1316H5.4478C5.92745 11.1319 6.31596 11.521 6.31554 12.0007C6.3152 12.4798 5.9269 12.8681 5.4478 12.8684H3.01728C2.53866 12.8671 2.15147 12.4786 2.15161 12ZM2.15161 18.2761C2.1521 17.7982 2.53936 17.4109 3.01728 17.4104H5.4478C5.92669 17.4104 6.31485 17.7986 6.31485 18.2775C6.31485 18.7563 5.92669 19.1445 5.4478 19.1445H3.01728C2.53846 19.1436 2.15099 18.7549 2.15161 18.2761ZM21.851 21.0562C21.85 22.1453 20.9674 23.0279 19.8783 23.0289H6.6908C5.60172 23.0279 4.71913 22.1453 4.71809 21.0562V20.1156H5.4478C6.46301 20.1156 7.28595 19.2927 7.28595 18.2775C7.28595 17.2622 6.46294 16.4393 5.4478 16.4393H4.71809V13.8395H5.4478C6.46377 13.8395 7.28734 13.016 7.28734 12C7.28734 10.984 6.46377 10.1605 5.4478 10.1605H4.71809V7.56069H5.4478C6.46301 7.56069 7.28595 6.73776 7.28595 5.72254C7.28595 4.70733 6.46294 3.88439 5.4478 3.88439H4.71809V2.94381C4.71913 1.85473 5.60172 0.972139 6.6908 0.971098H19.8783C20.9674 0.972139 21.85 1.85473 21.851 2.94381V21.0562Z" fill="#6C6C6C"/>
<path d="M19.285 5.23706H16.5451C16.277 5.23706 16.0596 5.45445 16.0596 5.72261C16.0596 5.99077 16.277 6.20816 16.5451 6.20816H19.285C19.5532 6.20816 19.7706 5.99077 19.7706 5.72261C19.7706 5.45445 19.5532 5.23706 19.285 5.23706Z" fill="#6C6C6C"/>
<path d="M19.285 11.5144H16.5451C16.277 11.5144 16.0596 11.7318 16.0596 12C16.0596 12.2681 16.277 12.4855 16.5451 12.4855H19.285C19.5532 12.4855 19.7706 12.2681 19.7706 12C19.7706 11.7318 19.5532 11.5144 19.285 11.5144Z" fill="#6C6C6C"/>
<path d="M19.285 17.792H16.5451C16.277 17.792 16.0596 18.0094 16.0596 18.2775C16.0596 18.5457 16.277 18.7631 16.5451 18.7631H19.285C19.5532 18.7631 19.7706 18.5457 19.7706 18.2775C19.7706 18.0094 19.5532 17.792 19.285 17.792Z" fill="#6C6C6C"/>
<path d="M13.4303 4.14074L11.2967 6.27438L10.1569 5.13459C9.96406 4.94828 9.65664 4.95355 9.47033 5.14638C9.28859 5.3345 9.28852 5.63283 9.47019 5.82102L10.9535 7.3043C11.1428 7.49394 11.4501 7.49415 11.6398 7.30472C11.6399 7.30458 11.64 7.30444 11.6402 7.3043L14.117 4.82717C14.3033 4.63426 14.2979 4.32684 14.105 4.1406C13.9167 3.95894 13.6184 3.959 13.4303 4.14074Z" fill="#6C6C6C"/>
<path d="M13.4303 10.4185L11.2967 12.5521L10.1569 11.4124C9.96406 11.226 9.65664 11.2313 9.47033 11.4241C9.28859 11.6123 9.28852 11.9106 9.47019 12.0988L10.9535 13.5815C11.1428 13.7712 11.4501 13.7714 11.6398 13.5819L11.6402 13.5815L14.117 11.1044C14.3001 10.9084 14.2897 10.6011 14.0937 10.4181C13.9069 10.2436 13.6168 10.2438 13.4303 10.4185Z" fill="#6C6C6C"/>
<path d="M13.4296 16.6956L11.2959 18.8292L10.1561 17.6895C9.9699 17.4966 9.66248 17.4911 9.46958 17.6774C9.27668 17.8636 9.27127 18.171 9.45751 18.3639C9.46139 18.368 9.46542 18.372 9.46944 18.3759L10.9527 19.8592C11.1421 20.0488 11.4494 20.049 11.639 19.8596C11.6392 19.8594 11.6393 19.8593 11.6394 19.8592L14.1163 17.3826C14.3025 17.1897 14.2971 16.8823 14.1042 16.696C13.916 16.5144 13.6177 16.5144 13.4296 16.6962V16.6956Z" fill="#6C6C6C"/>
</svg>
