<svg width="24" height="24" viewBox="0 0 24 24" fill="none" xmlns="http://www.w3.org/2000/svg">
<g clip-path="url(#clip0_36_4)">
<path d="M15.473 3.07129H11.0067C10.733 3.07129 10.5117 3.29254 10.5117 3.56629C10.5117 3.84004 10.733 4.06129 11.0067 4.06129H15.473C15.7467 4.06129 15.968 3.84004 15.968 3.56629C15.968 3.29254 15.7467 3.07129 15.473 3.07129Z" fill="#6C6C6C"/>
<path d="M15.4725 6.04883H3.56629C3.29254 6.04883 3.07129 6.27008 3.07129 6.54383C3.07129 6.81758 3.29254 7.03883 3.56629 7.03883H15.4725C15.7463 7.03883 15.9675 6.81758 15.9675 6.54383C15.9675 6.27008 15.7463 6.04883 15.4725 6.04883Z" fill="#6C6C6C"/>
<path d="M15.4725 9.02246H3.56629C3.29254 9.02246 3.07129 9.24371 3.07129 9.51746C3.07129 9.79121 3.29254 10.0125 3.56629 10.0125H15.4725C15.7463 10.0125 15.9675 9.79121 15.9675 9.51746C15.9675 9.24371 15.7463 9.02246 15.4725 9.02246Z" fill="#6C6C6C"/>
<path d="M15.9675 12.495C15.9675 12.2212 15.7463 12 15.4725 12H3.56629C3.29254 12 3.07129 12.2212 3.07129 12.495C3.07129 12.7687 3.29254 12.99 3.56629 12.99H15.4725C15.7463 12.9937 15.9675 12.7687 15.9675 12.495Z" fill="#6C6C6C"/>
<path d="M6.68602 17.6025L4.06102 20.2275L3.41977 19.5863C3.22477 19.3913 2.91352 19.3913 2.71852 19.5863C2.52352 19.7813 2.52352 20.0925 2.71852 20.2875L3.71227 21.2813C3.80977 21.3788 4.10602 21.5588 4.41352 21.2813L7.39102 18.3038C7.58602 18.1088 7.58602 17.7975 7.39102 17.6025C7.19602 17.4075 6.88102 17.4075 6.68602 17.6025Z" fill="#6C6C6C"/>
<path d="M23.76 11.7712L21.6562 9.66749C21.4612 9.47249 21.15 9.47249 20.955 9.66749L11.8312 18.7837C11.7562 18.8587 11.7075 18.96 11.6925 19.065L11.34 21.5212C11.3175 21.675 11.3775 22.0387 11.8312 22.0875C11.8537 22.0912 14.3587 21.7312 14.3587 21.7312C14.4637 21.7162 14.565 21.6675 14.64 21.5925L23.76 12.4725C24.0412 12.12 23.8537 11.8612 23.76 11.7712ZM14.055 20.775L12.4162 21.0075L12.6487 19.3687L19.2 12.8212L20.6025 14.2237L14.055 20.775ZM21.3037 13.5225L19.9012 12.12L21.3037 10.7175L22.7062 12.12L21.3037 13.5225Z" fill="#6C6C6C"/>
<path d="M18.4462 19.065C18.1725 19.065 17.9513 19.2862 17.9513 19.56V21.4237C17.9513 22.245 17.2838 22.9125 16.4625 22.9125H2.5725C1.75125 22.9125 1.08375 22.245 1.08375 21.4237V2.5725C1.08375 1.75125 1.75125 1.08375 2.5725 1.08375H16.4625C17.2838 1.08375 17.9513 1.75125 17.9513 2.5725V10.3912C17.9513 10.665 18.1725 10.8863 18.4462 10.8863C18.72 10.8863 18.9412 10.665 18.9412 10.3912V2.5725C18.9412 1.20375 17.8275 0.09375 16.4625 0.09375H2.5725C1.20375 0.09375 0.09375 1.2075 0.09375 2.5725V21.4237C0.09375 22.7925 1.2075 23.9025 2.5725 23.9025H16.4625C17.8313 23.9025 18.9412 22.7887 18.9412 21.4237V19.56C18.945 19.2862 18.72 19.065 18.4462 19.065Z" fill="#6C6C6C"/>
</g>
<defs>
<clipPath id="clip0_36_4">
<rect width="24" height="24" fill="white"/>
</clipPath>
</defs>
</svg>
