<svg width="24" height="24" viewBox="0 0 24 24" fill="none" xmlns="http://www.w3.org/2000/svg">
<path fill-rule="evenodd" clip-rule="evenodd" d="M17.482 3.70199C18.0179 3.16607 18.8922 3.16607 19.4281 3.70199L20.0781 4.35199C20.614 4.88791 20.614 5.76218 20.0781 6.29811L12.1111 14.265H9.51501V11.6689L17.482 3.70199ZM20.312 2.81811C19.2879 1.79403 17.6222 1.79403 16.5981 2.81811L8.44807 10.9681C8.33086 11.0853 8.26501 11.2443 8.26501 11.41V14.89C8.26501 15.2352 8.54484 15.515 8.89001 15.515H12.37C12.5358 15.515 12.6947 15.4492 12.812 15.332L20.962 7.18199C21.986 6.15791 21.986 4.49218 20.962 3.46811L20.312 2.81811ZM3.625 5C3.625 4.24518 4.24518 3.625 5 3.625H13C13.3452 3.625 13.625 3.34518 13.625 3C13.625 2.65482 13.3452 2.375 13 2.375H5C3.55482 2.375 2.375 3.55482 2.375 5V19C2.375 20.4452 3.55482 21.625 5 21.625H19C20.4452 21.625 21.625 20.4452 21.625 19V11C21.625 10.6548 21.3452 10.375 21 10.375C20.6548 10.375 20.375 10.6548 20.375 11V19C20.375 19.7548 19.7548 20.375 19 20.375H5C4.24518 20.375 3.625 19.7548 3.625 19V5Z" fill="#6C6C6C"/>
</svg>
