<svg width="60" height="60" viewBox="0 0 60 60" fill="none" xmlns="http://www.w3.org/2000/svg">
<path d="M30 0C16.2158 0 5 11.2146 5 25C5 31.7101 7.62699 38.0127 12.3877 42.7368L29.1113 59.6289C29.3457 59.8669 29.6655 60 30 60C30.3344 60 30.6542 59.867 30.8886 59.6289L47.6049 42.7453C52.373 38.0127 54.9999 31.7101 54.9999 25C54.9999 11.2146 43.7841 0 30 0ZM30 35C24.4848 35 20 30.514 20 25.0001C20 19.4861 24.4848 15 30 15C35.5152 15 39.9999 19.4861 39.9999 25C39.9999 30.5139 35.5152 35 30 35Z" fill="white"/>
</svg>
