<svg width="60" height="60" viewBox="0 0 60 60" fill="none" xmlns="http://www.w3.org/2000/svg">
<g clip-path="url(#clip0_75_636)">
<path fill-rule="evenodd" clip-rule="evenodd" d="M58.9024 52.7762C58.504 53.1734 58.0235 53.6813 57.5141 54.2185C56.2428 55.5676 54.6547 57.2448 53.6593 57.925C48.4222 61.5037 41.4158 59.7913 36.4598 57.7263C29.922 55.0023 22.8042 49.9813 16.4131 43.5894C10.0161 37.1971 4.99556 30.077 2.27154 23.543C0.209037 18.586 -1.50694 11.5781 2.07232 6.33986C2.75201 5.34377 4.43306 3.75811 5.78048 2.48439C6.31954 1.9765 6.82345 1.49662 7.22189 1.09947C7.92926 0.395616 8.88655 0.000488281 9.88445 0.000488281C10.8823 0.000488281 11.8396 0.395616 12.547 1.09947L22.1831 10.7328C22.8866 11.4401 23.2815 12.3971 23.2815 13.3947C23.2815 14.3923 22.8866 15.3494 22.1831 16.0567L19.5581 18.6764C18.6814 19.5467 18.1092 20.6767 17.9266 21.8984C17.744 23.1201 17.9607 24.3681 18.5445 25.4567C22.1551 32.2712 27.729 37.8442 34.5442 41.4536C35.6325 42.0372 36.8802 42.2537 38.1016 42.0708C39.3229 41.8878 40.4525 41.3153 41.322 40.4384L43.9406 37.8185C44.648 37.1147 45.6053 36.7196 46.6032 36.7196C47.6011 36.7196 48.5583 37.1147 49.2657 37.8185L58.9024 47.4535C59.6059 48.1606 60.0008 49.1174 60.0008 50.1148C60.0008 51.1123 59.6059 52.0691 58.9024 52.7762Z" fill="white"/>
</g>
<defs>
<clipPath id="clip0_75_636">
<rect width="60" height="60" fill="white"/>
</clipPath>
</defs>
</svg>
