<svg width="64" height="60" viewBox="0 0 64 60" fill="none" xmlns="http://www.w3.org/2000/svg">
<path d="M46.7397 20.333C48.0156 20.333 49.2637 20.4439 50.4848 20.6381V17.3649C50.4848 13.6202 47.461 10.5965 43.7444 10.5965H36.639V6.06793C36.639 2.72244 33.9166 0 30.5711 0H19.936C16.5906 0 13.8681 2.72244 13.8681 6.06793V10.5965H6.76814C3.05088 10.5965 0 13.6202 0 17.3649V41.8308C0 45.5479 3.05088 48.5991 6.76814 48.5991H24.854C24.3827 46.796 24.1328 44.9098 24.1328 42.9404C24.1328 30.4856 34.285 20.333 46.7397 20.333ZM19.4159 6.06793C19.4159 5.78078 19.6489 5.54782 19.936 5.54782H30.5711C30.8582 5.54782 31.0912 5.78078 31.0912 6.06793V10.5904H19.4159V6.06793Z" fill="white"/>
<path d="M46.7408 25.8809C37.3376 25.8809 29.6816 33.5091 29.6816 42.9405C29.6816 52.3717 37.3376 59.9999 46.7408 59.9999C56.1725 59.9999 63.8007 52.3717 63.8007 42.9405C63.8007 33.5091 56.1725 25.8809 46.7408 25.8809ZM52.5385 49.2927C51.499 50.3326 49.7291 50.3938 48.6269 49.2927L44.7992 45.4647C44.2724 44.9376 43.9669 44.2441 43.9669 43.4951V34.4799C43.9669 32.9265 45.2151 31.706 46.7408 31.706C48.2944 31.706 49.5147 32.9265 49.5147 34.4799V42.3579L52.5385 45.3538C53.62 46.4356 53.62 48.2108 52.5385 49.2927Z" fill="white"/>
</svg>
