<svg width="60" height="60" viewBox="0 0 60 60" fill="none" xmlns="http://www.w3.org/2000/svg">
<g clip-path="url(#clip0_75_608)">
<path d="M59.4721 11.9204L41.2754 30L59.4721 48.0795C59.8011 47.392 60.0007 46.6319 60.0007 45.8203V14.1797C60.0007 13.3679 59.8011 12.6079 59.4721 11.9204Z" fill="white"/>
<path d="M54.7261 8.90625H5.27293C4.46117 8.90625 3.70121 9.10582 3.01367 9.43477L26.2711 32.575C28.3275 34.6314 31.6715 34.6314 33.7279 32.575L56.9853 9.43477C56.2978 9.10582 55.5378 8.90625 54.7261 8.90625Z" fill="white"/>
<path d="M0.528516 11.9204C0.19957 12.6079 0 13.3679 0 14.1797V45.8203C0 46.632 0.19957 47.3921 0.528516 48.0795L18.7253 30L0.528516 11.9204Z" fill="white"/>
<path d="M38.7886 32.4858L36.2136 35.0608C32.7871 38.4872 27.2117 38.4872 23.7853 35.0608L21.2104 32.4858L3.01367 50.5654C3.70121 50.8944 4.46117 51.0939 5.27293 51.0939H54.7261C55.5378 51.0939 56.2978 50.8944 56.9853 50.5654L38.7886 32.4858Z" fill="white"/>
</g>
<defs>
<clipPath id="clip0_75_608">
<rect width="60" height="60" fill="white"/>
</clipPath>
</defs>
</svg>
