<svg width="32" height="32" viewBox="0 0 32 32" fill="none" xmlns="http://www.w3.org/2000/svg">
<path d="M11.0004 3.99992C10.7352 3.99992 10.4808 4.10528 10.2933 4.29281C10.1058 4.48035 10.0004 4.7347 10.0004 4.99992V8.58582L3.70741 2.29292C3.5188 2.11076 3.2662 2.00997 3.00401 2.01224C2.74181 2.01452 2.491 2.11969 2.30559 2.3051C2.12018 2.49051 2.01501 2.74132 2.01273 3.00352C2.01045 3.26571 2.11125 3.51832 2.29341 3.70692L8.58631 9.99992H5.00041C4.73519 9.99992 4.48084 10.1053 4.2933 10.2928C4.10576 10.4803 4.00041 10.7347 4.00041 10.9999C4.00041 11.2651 4.10576 11.5195 4.2933 11.707C4.48084 11.8946 4.73519 11.9999 5.00041 11.9999H11.0004C11.2656 11.9999 11.52 11.8946 11.7075 11.707C11.8951 11.5195 12.0004 11.2651 12.0004 10.9999V4.99992C12.0004 4.7347 11.8951 4.48035 11.7075 4.29281C11.52 4.10528 11.2656 3.99992 11.0004 3.99992Z" fill="white"/>
<path d="M10.9996 20H4.99959C4.73438 20 4.48002 20.1054 4.29249 20.2929C4.10495 20.4804 3.99959 20.7348 3.99959 21C3.99959 21.2652 4.10495 21.5196 4.29249 21.7071C4.48002 21.8946 4.73438 22 4.99959 22H8.58549L2.29259 28.293C2.19708 28.3852 2.1209 28.4956 2.06849 28.6176C2.01608 28.7396 1.9885 28.8708 1.98734 29.0036C1.98619 29.1364 2.01149 29.2681 2.06177 29.391C2.11205 29.5138 2.18631 29.6255 2.2802 29.7194C2.37409 29.8133 2.48574 29.8875 2.60864 29.9378C2.73154 29.9881 2.86321 30.0134 2.99599 30.0123C3.12877 30.0111 3.25999 29.9835 3.382 29.9311C3.504 29.8787 3.61435 29.8025 3.70659 29.707L9.99959 23.4141V27C9.99959 27.2652 10.1049 27.5196 10.2925 27.7071C10.48 27.8946 10.7344 28 10.9996 28C11.2648 28 11.5192 27.8946 11.7067 27.7071C11.8942 27.5196 11.9996 27.2652 11.9996 27V21C11.9996 20.7348 11.8942 20.4804 11.7067 20.2929C11.5192 20.1054 11.2648 20 10.9996 20Z" fill="white"/>
<path d="M29.707 2.29304C29.6142 2.20014 29.504 2.12644 29.3827 2.07616C29.2614 2.02588 29.1313 2 29 2C28.8687 2 28.7386 2.02588 28.6173 2.07616C28.496 2.12644 28.3858 2.20014 28.293 2.29304L22 8.58594V5.00004C22 4.73482 21.8946 4.48047 21.7071 4.29293C21.5196 4.10539 21.2652 4.00004 21 4.00004C20.7348 4.00004 20.4804 4.10539 20.2929 4.29293C20.1054 4.48047 20 4.73482 20 5.00004V11C20 11.2653 20.1054 11.5196 20.2929 11.7071C20.4804 11.8947 20.7348 12 21 12H27C27.2652 12 27.5196 11.8947 27.7071 11.7071C27.8946 11.5196 28 11.2653 28 11C28 10.7348 27.8946 10.4805 27.7071 10.2929C27.5196 10.1054 27.2652 10 27 10H23.4141L29.707 3.70704C29.7999 3.61422 29.8736 3.50401 29.9239 3.3827C29.9742 3.26139 30 3.13135 30 3.00004C30 2.86872 29.9742 2.73869 29.9239 2.61737C29.8736 2.49606 29.7999 2.38585 29.707 2.29304Z" fill="white"/>
<path d="M29.707 28.293L23.4141 22H27C27.2652 22 27.5196 21.8946 27.7071 21.7071C27.8946 21.5196 28 21.2652 28 21C28 20.7348 27.8946 20.4804 27.7071 20.2929C27.5196 20.1054 27.2652 20 27 20H21C20.7348 20 20.4804 20.1054 20.2929 20.2929C20.1054 20.4804 20 20.7348 20 21V27C20 27.2652 20.1054 27.5196 20.2929 27.7071C20.4804 27.8946 20.7348 28 21 28C21.2652 28 21.5196 27.8946 21.7071 27.7071C21.8946 27.5196 22 27.2652 22 27V23.4141L28.293 29.707C28.4816 29.8892 28.7342 29.99 28.9964 29.9877C29.2586 29.9854 29.5094 29.8802 29.6948 29.6948C29.8802 29.5094 29.9854 29.2586 29.9877 28.9964C29.99 28.7342 29.8892 28.4816 29.707 28.293Z" fill="white"/>
<path d="M16 20C15.2089 20 14.4355 19.7654 13.7777 19.3259C13.1199 18.8864 12.6072 18.2616 12.3045 17.5307C12.0017 16.7998 11.9225 15.9956 12.0769 15.2196C12.2312 14.4437 12.6122 13.731 13.1716 13.1716C13.731 12.6122 14.4437 12.2312 15.2196 12.0769C15.9956 11.9225 16.7998 12.0017 17.5307 12.3045C18.2616 12.6072 18.8864 13.1199 19.3259 13.7777C19.7654 14.4355 20 15.2089 20 16C19.999 17.0606 19.5772 18.0774 18.8273 18.8273C18.0774 19.5772 17.0606 19.999 16 20ZM16 14C15.6044 14 15.2178 14.1173 14.8889 14.3371C14.56 14.5568 14.3036 14.8692 14.1522 15.2346C14.0009 15.6001 13.9613 16.0022 14.0384 16.3902C14.1156 16.7781 14.3061 17.1345 14.5858 17.4142C14.8655 17.6939 15.2219 17.8844 15.6098 17.9616C15.9978 18.0387 16.3999 17.9991 16.7654 17.8478C17.1308 17.6964 17.4432 17.44 17.6629 17.1111C17.8827 16.7822 18 16.3956 18 16C17.9993 15.4698 17.7883 14.9615 17.4134 14.5866C17.0385 14.2117 16.5302 14.0007 16 14Z" fill="white"/>
</svg>
