<svg width="110" height="110" viewBox="0 0 110 110" fill="none" xmlns="http://www.w3.org/2000/svg">
<path d="M57.7388 48.036L49.2754 49.5283L51.0662 59.6846L59.5299 58.1923C62.3298 57.6985 64.2063 55.0187 63.7126 52.2187C63.2189 49.419 60.5394 47.5438 57.7388 48.036Z" fill="#C96744"/>
<path d="M109.974 71.7639L103.098 16.7618C102.775 14.1939 99.8391 12.8946 97.725 14.364C79.0564 27.3454 54.5848 32.1065 37.3429 33.8146C18.4724 35.6838 3.89043 34.4033 3.74433 34.3904C1.6435 34.1987 -0.264385 35.9558 0.030177 38.3121L6.89621 93.2405C7.11106 94.9615 8.5742 96.2528 10.3081 96.2528C28.781 96.2528 45.7634 94.8115 61.0054 91.96C63.3108 91.5288 65.2073 89.6319 65.3306 86.6966C65.8375 74.7186 75.8661 65.2096 87.8544 65.3149C95.2359 65.3798 101.772 69.0402 105.797 74.6264C107.245 76.6357 110.315 74.525 109.974 71.7639ZM60.7246 64.9632L52.261 66.4556L52.8578 69.841L59.6287 68.647C61.4989 68.317 63.2816 69.566 63.6109 71.4356C63.9405 73.3053 62.6922 75.0883 60.8224 75.4179L54.0515 76.6118L54.6486 79.9975C54.9784 81.8671 53.7299 83.6502 51.86 83.9798C49.9947 84.3093 48.208 83.0647 47.8778 81.1912C47.1522 77.0768 42.6354 51.4606 41.9083 47.3372C41.5785 45.4675 42.827 43.6845 44.6969 43.3549L56.5457 41.2654C63.0775 40.1138 69.332 44.4914 70.4841 51.0249C71.6361 57.5585 67.2581 63.8112 60.7246 64.9632Z" fill="#C96744"/>
<path d="M87.6549 103.128C79.1251 103.128 72.1855 96.1887 72.1855 87.6588C72.1855 79.129 79.1251 72.1895 87.6549 72.1895C96.1847 72.1895 103.124 79.129 103.124 87.6588C103.124 96.1887 96.1847 103.128 87.6549 103.128Z" fill="#C96744"/>
<path d="M44.2455 10.8258C43.1231 11.5047 43.1624 13.1486 44.3076 13.7886C48.1723 15.9483 51.4656 19.0145 53.8988 22.697C54.4894 23.591 55.5618 24.0379 56.6083 23.8078C63.2593 22.3447 70.2585 20.3719 77.2298 17.714C78.3859 17.2731 78.7131 15.7767 77.8368 14.9033C68.7861 5.88293 54.9181 4.37015 44.2455 10.8258Z" fill="#C96744"/>
<path d="M14.5841 25.2538C13.7215 26.3747 14.5369 28.0007 15.9512 28.0056C25.2874 28.0387 34.9987 27.3985 44.4095 26.0262C45.8241 25.8199 46.3818 24.088 45.3606 23.0874C36.4883 14.393 22.1156 15.4671 14.5841 25.2538Z" fill="#C96744"/>
</svg>
