<svg width="110" height="110" viewBox="0 0 110 110" fill="none" xmlns="http://www.w3.org/2000/svg">
<path d="M43.5417 48.1253C44.8073 48.1253 45.8333 47.0993 45.8333 45.8337C45.8333 44.568 44.8073 43.542 43.5417 43.542C42.276 43.542 41.25 44.568 41.25 45.8337C41.25 47.0993 42.276 48.1253 43.5417 48.1253Z" fill="#C96744"/>
<path d="M66.4577 66.4583C67.7233 66.4583 68.7493 65.4323 68.7493 64.1667C68.7493 62.901 67.7233 61.875 66.4577 61.875C65.192 61.875 64.166 62.901 64.166 64.1667C64.166 65.4323 65.192 66.4583 66.4577 66.4583Z" fill="#C96744"/>
<path d="M104.752 55.6647C104.539 55.4499 104.286 55.2794 104.006 55.1631C103.727 55.0467 103.428 54.9868 103.125 54.9868C102.822 54.9868 102.523 55.0467 102.244 55.1631C101.964 55.2794 101.711 55.4499 101.498 55.6647L100.833 56.3522V55.0001C100.796 44.2633 96.9906 33.8802 90.0807 25.6623C83.1707 17.4444 73.595 11.9132 63.0239 10.0335C52.4528 8.15393 41.5573 10.0452 32.238 15.3775C22.9188 20.7098 15.7674 29.1446 12.0312 39.2105C12.5893 39.0452 13.168 38.9603 13.75 38.9584C15.5727 38.96 17.3203 39.6854 18.6083 40.9751L20.4417 42.8084C23.3296 34.6641 29.0012 27.8013 36.4558 23.431C43.9104 19.0606 52.669 17.4636 61.1864 18.9215C69.7037 20.3794 77.4325 24.7987 83.0092 31.3996C88.5858 38.0005 91.652 46.3589 91.6667 55.0001V56.3522L91.0021 55.6647C90.7884 55.451 90.5348 55.2815 90.2556 55.1659C89.9764 55.0503 89.6772 54.9907 89.375 54.9907C89.0728 54.9907 88.7736 55.0503 88.4944 55.1659C88.2153 55.2815 87.9616 55.451 87.7479 55.6647C87.5342 55.8784 87.3648 56.132 87.2491 56.4112C87.1335 56.6904 87.074 56.9896 87.074 57.2918C87.074 57.594 87.1335 57.8932 87.2491 58.1723C87.3648 58.4515 87.5342 58.7052 87.7479 58.9189L94.6229 65.7939C94.836 66.0087 95.0894 66.1791 95.3687 66.2955C95.6479 66.4118 95.9475 66.4717 96.25 66.4717C96.5525 66.4717 96.8521 66.4118 97.1313 66.2955C97.4106 66.1791 97.664 66.0087 97.8771 65.7939L104.752 58.9189C104.967 58.7058 105.137 58.4524 105.254 58.1731C105.37 57.8938 105.43 57.5943 105.43 57.2918C105.43 56.9893 105.37 56.6897 105.254 56.4105C105.137 56.1312 104.967 55.8777 104.752 55.6647Z" fill="#C96744"/>
<path d="M23.2148 59.0794C24.1922 66.395 27.6619 73.1499 33.0391 78.2054C38.4163 83.261 45.3721 86.308 52.7339 86.8329C60.0958 87.3578 67.4135 85.3284 73.4535 81.0869C79.4936 76.8454 83.8865 70.6511 85.8919 63.5482L84.5169 62.1503C83.2295 60.8612 82.5063 59.1138 82.5063 57.2919C82.5063 55.4701 83.2295 53.7227 84.5169 52.4336C85.1741 51.7838 85.9528 51.2699 86.8086 50.9211C85.8312 43.6056 82.3615 36.8507 76.9843 31.7952C71.6071 26.7396 64.6514 23.6926 57.2895 23.1677C49.9277 22.6428 42.6099 24.6722 36.5699 28.9137C30.5299 33.1552 26.1369 39.3495 24.1315 46.4524L25.5065 47.8503C26.794 49.1393 27.5171 50.8867 27.5171 52.7086C27.5171 54.5305 26.794 56.2779 25.5065 57.5669C24.8494 58.2167 24.0707 58.7307 23.2148 59.0794ZM73.3336 64.167C73.3336 65.5267 72.9304 66.8559 72.175 67.9865C71.4195 69.1171 70.3458 69.9983 69.0895 70.5186C67.8333 71.039 66.451 71.1751 65.1173 70.9099C63.7837 70.6446 62.5587 69.9898 61.5972 69.0283C60.6357 68.0668 59.981 66.8418 59.7157 65.5082C59.4504 64.1746 59.5866 62.7922 60.1069 61.536C60.6273 60.2798 61.5085 59.206 62.639 58.4506C63.7696 57.6952 65.0988 57.2919 66.4586 57.2919C68.282 57.2919 70.0306 58.0163 71.32 59.3056C72.6093 60.5949 73.3336 62.3436 73.3336 64.167ZM67.1232 39.6232C67.5547 39.1917 68.14 38.9492 68.7503 38.9492C69.3605 38.9492 69.9458 39.1917 70.3773 39.6232C70.8089 40.0547 71.0513 40.64 71.0513 41.2503C71.0513 41.8606 70.8089 42.4458 70.3773 42.8774L42.8773 70.3774C42.6643 70.5922 42.4108 70.7626 42.1316 70.879C41.8523 70.9953 41.5528 71.0552 41.2503 71.0552C40.9477 71.0552 40.6482 70.9953 40.3689 70.879C40.0897 70.7626 39.8362 70.5922 39.6232 70.3774C39.4084 70.1643 39.2379 69.9109 39.1215 69.6316C39.0052 69.3523 38.9453 69.0528 38.9453 68.7503C38.9453 68.4478 39.0052 68.1482 39.1215 67.869C39.2379 67.5897 39.4084 67.3362 39.6232 67.1232L67.1232 39.6232ZM43.5419 38.9586C44.9017 38.9586 46.2309 39.3618 47.3615 40.1173C48.4921 40.8727 49.3732 41.9464 49.8936 43.2027C50.414 44.4589 50.5501 45.8412 50.2848 47.1749C50.0196 48.5085 49.3648 49.7335 48.4033 50.695C47.4418 51.6565 46.2168 52.3112 44.8832 52.5765C43.5496 52.8418 42.1672 52.7056 40.911 52.1853C39.6547 51.6649 38.581 50.7837 37.8256 49.6532C37.0701 48.5226 36.6669 47.1934 36.6669 45.8336C36.6669 44.0103 37.3913 42.2616 38.6806 40.9723C39.9699 39.6829 41.7186 38.9586 43.5419 38.9586Z" fill="#C96744"/>
<path d="M91.3919 69.0249L89.5586 67.1916C86.6707 75.336 80.9991 82.1987 73.5445 86.5691C66.0899 90.9394 57.3313 92.5365 48.8139 91.0786C40.2965 89.6206 32.5678 85.2014 26.9911 78.6005C21.4145 71.9996 18.3483 63.6412 18.3336 54.9999V53.6479L18.9982 54.3354C19.2112 54.5502 19.4647 54.7206 19.7439 54.837C20.0232 54.9533 20.3227 55.0132 20.6253 55.0132C20.9278 55.0132 21.2273 54.9533 21.5066 54.837C21.7858 54.7206 22.0393 54.5502 22.2523 54.3354C22.4671 54.1223 22.6376 53.8689 22.754 53.5896C22.8703 53.3103 22.9302 53.0108 22.9302 52.7083C22.9302 52.4057 22.8703 52.1062 22.754 51.827C22.6376 51.5477 22.4671 51.2942 22.2523 51.0812L15.3773 44.2062C15.1643 43.9914 14.9108 43.8209 14.6316 43.7046C14.3523 43.5882 14.0528 43.5283 13.7503 43.5283C13.4477 43.5283 13.1482 43.5882 12.8689 43.7046C12.5897 43.8209 12.3362 43.9914 12.1232 44.2062L5.24818 51.0812C4.81665 51.5127 4.57422 52.098 4.57422 52.7083C4.57422 53.3186 4.81665 53.9038 5.24818 54.3354C5.67971 54.7669 6.26499 55.0093 6.87526 55.0093C7.48554 55.0093 8.07082 54.7669 8.50235 54.3354L9.16693 53.6479V54.9999C9.20418 65.7368 13.0097 76.1198 19.9196 84.3377C26.8295 92.5557 36.4053 98.0869 46.9764 99.9665C57.5475 101.846 68.443 99.9548 77.7622 94.6225C87.0815 89.2903 94.2329 80.8555 97.969 70.7895C97.411 70.9549 96.8323 71.0397 96.2503 71.0416C94.4275 71.04 92.68 70.3146 91.3919 69.0249Z" fill="#C96744"/>
</svg>
