<svg width="110" height="110" viewBox="0 0 110 110" fill="none" xmlns="http://www.w3.org/2000/svg">
<path d="M101.217 74.0026C101.217 76.3573 98.2369 78.4439 93.7337 79.6092C91.2725 80.2761 88.3334 80.6508 85.1881 80.6508C82.06 80.6508 79.1209 80.2761 76.6631 79.6092C72.16 78.4404 69.1797 76.3779 69.1797 74.0026C69.1797 70.3348 76.3503 67.3511 85.1916 67.3511C94.0466 67.3511 101.217 70.3314 101.217 74.0026Z" fill="#C96744"/>
<path d="M95.0484 95.8513C92.0784 96.6316 88.6718 97.0441 85.1862 97.0441C81.7143 97.0441 78.3146 96.6316 75.3515 95.8547C72.7424 95.1672 70.7315 94.2838 69.1777 93.3179V96.4735C69.1777 100.141 76.3484 103.125 85.1896 103.125C94.048 103.125 101.222 100.145 101.222 96.4735V93.3179C99.6649 94.2838 97.6574 95.1638 95.0484 95.8513Z" fill="#C96744"/>
<path d="M64.0208 96.4734V85.2363V84.0366V72.8406L64.1067 72.8956C64.9833 66.5431 73.3983 62.1981 85.1855 62.1981C89.8708 62.1981 94.0233 62.8822 97.3852 64.1059V13.5438L86.3508 6.875L75.282 13.5438L64.1789 6.875L53.1445 13.5438L42.0758 6.875L31.007 13.5438L19.8695 6.875L8.80078 13.5438V94.05C8.80078 99.0687 12.857 103.125 17.8758 103.125H67.2864C65.1964 101.279 64.0208 99.0206 64.0208 96.4734ZM68.8023 61.4281H27.243C25.5345 61.4281 24.1492 60.0428 24.1492 58.3344C24.1492 56.6259 25.5345 55.2406 27.243 55.2406H68.8023C70.5108 55.2406 71.8961 56.6259 71.8961 58.3344C71.8961 60.0428 70.5108 61.4281 68.8023 61.4281ZM27.2395 36.5991H78.9464C80.6548 36.5991 82.0402 37.9844 82.0402 39.6928C82.0402 41.4012 80.6548 42.7866 78.9464 42.7866H27.2395C25.5311 42.7866 24.1458 41.4012 24.1458 39.6928C24.1458 37.9844 25.5311 36.5991 27.2395 36.5991ZM50.5114 80.0766H27.2395C25.5311 80.0766 24.1458 78.6913 24.1458 76.9828C24.1458 75.2744 25.5311 73.8891 27.2395 73.8891H50.5148C52.2233 73.8891 53.6086 75.2744 53.6086 76.9828C53.6086 78.6913 52.2198 80.0766 50.5114 80.0766Z" fill="#C96744"/>
<path d="M95.0312 84.6002C92.1299 85.384 88.7096 85.8068 85.1896 85.8068C81.6799 85.8068 78.2665 85.384 75.3171 84.5865C72.7252 83.9162 70.728 83.0465 69.1777 82.0909V85.2362C69.1777 87.6115 72.158 89.6774 76.6612 90.8634C79.1224 91.5096 82.0615 91.8843 85.1862 91.8843C88.3349 91.8843 91.274 91.5096 93.7318 90.8634C98.2349 89.674 101.215 87.5909 101.215 85.2362V82.084C99.6615 83.0465 97.6471 83.923 95.0312 84.6002Z" fill="#C96744"/>
</svg>
