<svg width="172" height="172" viewBox="0 0 172 172" fill="none" xmlns="http://www.w3.org/2000/svg">
<rect width="172" height="172" rx="4" fill="#E2E2E2"/>
<path d="M86.0717 42.6479H51.9146C44.2583 42.6479 38.0312 48.875 38.0312 56.5312V90.7087C38.0312 98.365 44.2583 104.592 51.9146 104.592H52.1188V113.045C52.1188 115.821 55.365 117.332 57.4884 115.535L70.4529 104.592H86.0717C93.728 104.592 99.955 98.3649 99.955 90.7087V56.5312C99.955 48.875 93.728 42.6479 86.0717 42.6479ZM67.8397 93.2404C56.9984 93.2404 48.1987 84.4612 48.1987 73.5995C48.1987 62.7378 56.9984 53.9383 67.8397 53.9383C78.7012 53.9383 87.5008 62.7379 87.5008 73.5995C87.5008 84.4612 78.7012 93.2404 67.8397 93.2404Z" fill="#C96744"/>
<path d="M71.089 57.3117C59.4191 55.0814 49.3455 65.1885 51.5726 76.8521C52.8168 83.3681 58.0716 88.6229 64.5876 89.867C76.2512 92.0939 86.3581 82.0206 84.1279 70.3507C82.8804 63.8233 77.6164 58.5592 71.089 57.3117ZM76.7609 75.7913C77.979 76.5033 78.3726 78.04 77.6792 79.2581C76.9671 80.5137 75.3741 80.8697 74.2123 80.1951L70.3894 77.9651V82.4064C70.3894 83.7931 69.2463 84.9362 67.8595 84.9362C66.4353 84.9362 65.3109 83.7744 65.3109 82.4064V77.9651L61.488 80.1951C60.2699 80.8885 58.7145 80.4763 58.0211 79.2581C57.309 78.04 57.7401 76.5033 58.9581 75.7913L62.781 73.5799L58.9581 71.3687C57.7401 70.6753 57.309 69.12 58.0211 67.9019C58.6771 66.7588 60.1574 66.234 61.488 66.9836L65.3109 69.1949V64.943C65.3109 63.7071 66.1167 62.5302 67.3299 62.2942C69 61.9693 70.3894 63.2177 70.3894 64.7724V69.1949L74.2123 66.9836C75.4304 66.2903 76.9671 66.6837 77.6792 67.9019C78.41 69.2324 77.9041 70.7128 76.7609 71.3687L72.9193 73.58L76.7609 75.7913Z" fill="#C96744"/>
<path d="M122.454 68.2913H103.017V90.7087C103.017 100.039 95.402 107.655 86.0716 107.655H82.6416V108.124C82.6416 114.474 87.807 119.639 94.1565 119.639H107.101L117.84 128.704C119.596 130.195 122.291 128.949 122.291 126.642V119.639H122.454C128.804 119.639 133.969 114.474 133.969 108.124V79.8063C133.969 73.4566 128.804 68.2913 122.454 68.2913Z" fill="#C96744"/>
</svg>
