<svg width="172" height="172" viewBox="0 0 172 172" fill="none" xmlns="http://www.w3.org/2000/svg">
<rect width="172" height="172" rx="4" fill="#E2E2E2"/>
<path d="M128.248 38H72.584C71.046 38 69.8008 39.2452 69.8008 40.7832V43.5664H105.982C107.521 43.5664 108.766 44.8116 108.766 46.3496V49.1328H117.115C118.654 49.1328 119.898 50.378 119.898 51.916C119.898 53.454 118.654 54.6992 117.115 54.6992H108.766V60.2656H117.115C118.654 60.2656 119.898 61.5108 119.898 63.0488C119.898 64.5868 118.654 65.832 117.115 65.832H108.766V71.3984H117.115C118.654 71.3984 119.898 72.6436 119.898 74.1816C119.898 75.7196 118.654 76.9648 117.115 76.9648H108.766V82.5312H117.115C118.654 82.5312 119.898 83.7764 119.898 85.3144C119.898 86.8525 118.654 88.0976 117.115 88.0976H108.766V93.664H117.115C118.654 93.664 119.898 94.9092 119.898 96.4473C119.898 97.9853 118.654 99.2305 117.115 99.2305H108.766V110.363H128.248C129.787 110.363 131.031 109.118 131.031 107.58V40.7832C131.031 39.2452 129.787 38 128.248 38Z" fill="#C96744"/>
<path d="M75.3672 88.0977C69.2275 88.0977 64.2344 93.0908 64.2344 99.2305C64.2344 105.37 69.2275 110.363 75.3672 110.363C81.5069 110.363 86.5 105.37 86.5 99.2305C86.5 93.0908 81.5069 88.0977 75.3672 88.0977ZM75.3672 104.797C72.2984 104.797 69.8008 102.299 69.8008 99.2305C69.8008 96.1617 72.2984 93.6641 75.3672 93.6641C78.436 93.6641 80.9336 96.1617 80.9336 99.2305C80.9336 102.299 78.436 104.797 75.3672 104.797Z" fill="#C96744"/>
<path d="M100.416 49.1328H44.752C43.2139 49.1328 41.9688 50.378 41.9688 51.916V118.713C41.9688 120.251 43.2139 121.496 44.752 121.496H61.4512V108.428C59.7001 105.788 58.668 102.63 58.668 99.2305C58.668 90.022 66.1587 82.5312 75.3672 82.5312C84.5757 82.5312 92.0664 90.022 92.0664 99.2305C92.0664 102.63 91.0343 105.788 89.2832 108.428V121.496H100.416C101.955 121.496 103.199 120.251 103.199 118.713V51.916C103.199 50.378 101.955 49.1328 100.416 49.1328ZM89.2832 76.9648H55.8848C54.3468 76.9648 53.1016 75.7196 53.1016 74.1816C53.1016 72.6436 54.3468 71.3984 55.8848 71.3984H89.2832C90.8219 71.3984 92.0664 72.6436 92.0664 74.1816C92.0664 75.7196 90.8219 76.9648 89.2832 76.9648ZM89.2832 65.832H55.8848C54.3468 65.832 53.1016 64.5868 53.1016 63.0488C53.1016 61.5108 54.3468 60.2656 55.8848 60.2656H89.2832C90.8219 60.2656 92.0664 61.5108 92.0664 63.0488C92.0664 64.5868 90.8219 65.832 89.2832 65.832Z" fill="#C96744"/>
<path d="M67.0176 113.607V131.39C67.0176 131.984 67.3445 132.53 67.8678 132.809C68.3911 133.09 69.0267 133.059 69.5203 132.73L75.3672 128.832L81.2141 132.73C81.7077 133.059 82.3433 133.089 82.8666 132.809C83.3899 132.53 83.7168 131.984 83.7168 131.39V113.607C81.2503 115.045 78.4222 115.93 75.3672 115.93C72.3122 115.93 69.484 115.045 67.0176 113.607Z" fill="#C96744"/>
</svg>
