<svg width="172" height="172" viewBox="0 0 172 172" fill="none" xmlns="http://www.w3.org/2000/svg">
<rect width="172" height="172" rx="4" fill="#E2E2E2"/>
<path d="M127.071 94.7862L125.568 93.92C124.877 93.5056 124.323 92.8981 123.974 92.1724C123.624 91.4467 123.495 90.6346 123.602 89.8362C123.741 88.5622 123.812 87.2816 123.813 86C123.811 84.7231 123.743 83.4471 123.606 82.1775C123.496 81.3775 123.624 80.5627 123.972 79.8344C124.321 79.106 124.876 78.496 125.568 78.08L127.071 77.2137C129.578 75.7635 131.406 73.378 132.155 70.581C132.905 67.784 132.514 64.804 131.068 62.295L129.083 58.8208C128.365 57.5783 127.409 56.4895 126.269 55.6166C125.13 54.7437 123.83 54.1039 122.443 53.7336C121.057 53.3633 119.611 53.2698 118.188 53.4585C116.765 53.6472 115.393 54.1144 114.151 54.8333L112.629 55.7133C111.931 56.1033 111.134 56.2802 110.337 56.2224C109.54 56.1646 108.777 55.8745 108.142 55.3879C105.961 53.8146 103.62 52.4765 101.157 51.3958C100.415 51.0899 99.7776 50.574 99.3242 49.9113C98.8707 49.2485 98.6205 48.4679 98.6043 47.665C98.6043 44.767 97.454 41.9875 95.4061 39.937C93.3582 37.8866 90.5802 36.7328 87.6822 36.7292H84.318C81.4224 36.7328 78.6465 37.8847 76.599 39.9322C74.5515 41.9797 73.3996 44.7556 73.3959 47.6512C73.3794 48.4546 73.1285 49.2357 72.6742 49.8985C72.2198 50.5612 71.5818 51.0769 70.8384 51.3821C68.3787 52.4627 66.0404 53.8009 63.8626 55.3742C63.228 55.8618 62.4644 56.153 61.6662 56.2116C60.868 56.2703 60.07 56.0938 59.3709 55.7042L57.8539 54.8333C56.6116 54.1131 55.2395 53.6448 53.8161 53.4554C52.3926 53.266 50.9458 53.3592 49.5584 53.7295C48.171 54.0999 46.8703 54.7402 45.7306 55.6138C44.591 56.4875 43.6348 57.5772 42.9168 58.8208L40.9139 62.295C39.4682 64.804 39.0772 67.784 39.8265 70.581C40.5758 73.378 42.4042 75.7635 44.9105 77.2137L46.4139 78.08C47.1045 78.4944 47.6587 79.1019 48.0081 79.8276C48.3575 80.5533 48.4868 81.3654 48.3801 82.1637C48.2466 83.4381 48.1823 84.7187 48.1876 86C48.1888 87.2769 48.2577 88.5529 48.3939 89.8225C48.5039 90.6225 48.3766 91.4372 48.0279 92.1656C47.6792 92.894 47.1244 93.504 46.4322 93.92L44.9289 94.7862C42.4226 96.2365 40.5941 98.6219 39.8448 101.419C39.0955 104.216 39.4866 107.196 40.9322 109.705L42.9351 113.179C44.3836 115.687 46.7691 117.517 49.5669 118.267C52.3646 119.016 55.3455 118.624 57.8539 117.176L59.3664 116.3C60.0647 115.909 60.8626 115.731 61.661 115.789C62.4595 115.847 63.2234 116.138 63.858 116.626C66.0391 118.199 68.3804 119.537 70.843 120.618C71.5855 120.924 72.2226 121.44 72.6761 122.102C73.1296 122.765 73.3797 123.546 73.3959 124.349C73.3996 127.244 74.5515 130.02 76.599 132.068C78.6465 134.115 81.4224 135.267 84.318 135.271H87.6822C90.5778 135.267 93.3538 134.115 95.4013 132.068C97.4488 130.02 98.6006 127.244 98.6043 124.349C98.6209 123.545 98.8717 122.764 99.3261 122.102C99.7804 121.439 100.418 120.923 101.162 120.618C103.621 119.537 105.96 118.199 108.138 116.626C108.775 116.142 109.54 115.854 110.338 115.797C111.136 115.74 111.934 115.916 112.634 116.305L114.146 117.176C115.389 117.896 116.762 118.363 118.186 118.552C119.609 118.741 121.056 118.647 122.444 118.276C123.831 117.904 125.132 117.263 126.271 116.389C127.411 115.514 128.366 114.424 129.083 113.179L131.086 109.705C132.53 107.194 132.919 104.212 132.166 101.415C131.413 98.6175 129.581 96.2334 127.071 94.7862ZM86.0001 107.771C81.6942 107.771 77.4851 106.494 73.9049 104.102C70.3247 101.71 67.5343 98.3094 65.8865 94.3313C64.2387 90.3532 63.8076 85.9758 64.6476 81.7527C65.4876 77.5296 67.5611 73.6504 70.6058 70.6057C73.6505 67.561 77.5297 65.4875 81.7528 64.6475C85.976 63.8074 90.3533 64.2386 94.3314 65.8864C98.3095 67.5341 101.71 70.3246 104.102 73.9048C106.494 77.485 107.771 81.6941 107.771 86C107.764 91.7717 105.468 97.305 101.386 101.386C97.3051 105.468 91.7719 107.764 86.0001 107.771Z" fill="#C96744"/>
<path d="M86.0003 100.896C94.2271 100.896 100.896 94.2267 100.896 86C100.896 77.7732 94.2271 71.1042 86.0003 71.1042C77.7736 71.1042 71.1045 77.7732 71.1045 86C71.1045 94.2267 77.7736 100.896 86.0003 100.896Z" fill="#C96744"/>
</svg>
