<svg width="172" height="172" viewBox="0 0 172 172" fill="none" xmlns="http://www.w3.org/2000/svg">
<rect width="172" height="172" rx="4" fill="#E2E2E2"/>
<path fill-rule="evenodd" clip-rule="evenodd" d="M16.1717 115.072C15.3998 113.502 15.204 111.538 14.2481 110.137C13.3868 108.923 12.2026 108.201 11.6764 106.744C10.6705 102.839 7.2191 99.1806 8.16122 95.6868C8.754 95.2693 10.5613 95.6542 11.0846 95.5687C13.5222 95.3071 16.9486 94.982 17.6726 92.2401C18.3167 89.8415 16.3142 88.328 16.4917 85.7706C16.6242 84.7499 17.4214 84.0768 17.6269 83.0637C17.3008 78.5851 18.0369 78.578 19.9893 75.4283C21.2391 73.7971 20.7881 72.0692 22.3821 70.4956C28.4009 65.6249 32.7365 67.7247 34.1649 66.7297C40.4754 62.4565 41.7988 56.6723 45.001 58.1161C47.3498 59.0118 48.6783 62.5976 48.1357 65.0366C47.725 67.1468 44.8968 68.7202 43.6884 65.9044C43.4211 65.7919 42.2632 66.0471 42.1406 66.3009C41.4794 66.8841 41.7889 67.9511 42.4591 68.9283C44.5544 72.0491 49.0074 71.71 51.6863 71.6801C58.6586 71.2445 56.9992 72.2971 59.6204 72.8542C60.2509 72.8593 61.4076 72.0091 62.3157 71.743C63.892 71.5041 65.642 71.6673 66.9684 73.1716C68.5831 73.5741 70.4611 68.9394 72.2697 68.7363C76.1085 68.255 75.417 73.166 81.3007 70.1164C84.2552 68.8162 84.2513 68.6436 85.3664 67.0589C86.4369 65.7782 88.2311 65.4175 89.6083 64.5297C94.541 60.2343 93.2243 60.2922 98.1999 61.9071C99.7119 62.2089 100.117 62.843 100.202 64.0163C100.086 66.4975 100.138 68.2715 103.058 68.6903C104.486 68.669 105.776 67.4478 107.638 67.9292C110.254 68.4242 112.509 70.6466 115.234 70.498C118.035 68.7739 119.538 61.8415 122.637 61.1965C124.182 60.9016 125.774 61.3822 127.223 60.3697C134.194 54.888 132.059 58.1092 135.605 55.9168C136.675 55.0742 137.081 54.0417 137.499 52.8873C138.918 47.0071 144.519 45.7514 148.427 42.5479C149.195 41.7173 149.636 40.3987 150.267 39.5997C151.566 37.5955 154.108 41.1612 154.461 42.3199C154.221 43.3852 153.416 43.8422 152.844 44.5439C146.648 51.289 152.883 49.6013 154.865 51.7696C155.518 53.0044 155.647 55.5661 155.875 57.916C156.551 62.8117 153.068 66.2025 154.701 69.155C155.587 70.7576 157.16 72.2204 157.971 73.3185C159.687 75.5828 161.041 78.6834 161.78 81.6074C163.441 89.5028 162.538 86.4501 161.181 85.5839C158.234 82.9849 155.268 84.3499 153.428 81.7652C151.059 78.3148 152.712 73.7793 152.487 72.8871C149.725 66.2242 145.56 71.7502 146.143 74.2569C146.447 75.2877 147.623 77.0322 147.706 78.3653C147.786 80.5295 144.628 81.5954 143.346 82.7245C141.078 84.6566 135.867 88.8311 136.953 91.3182C138.063 94.1334 136.792 95.3976 136.279 97.1213C135.732 98.2605 138.651 98.5059 139.066 98.209C140.12 97.8621 141.333 97.0152 142.378 97.3523C144.535 98.1633 146.696 101.066 147.211 102.448C149.417 109.455 151.369 115.418 148.859 120.216C147.753 121.897 146.413 124.606 145.174 124.932C143.174 124.811 140.603 123.261 141.12 121.713C141.546 119.621 144.766 117.146 143.035 114.756C142.541 114.032 141.807 113.934 141.021 114.073C137.401 115.275 136.873 115.022 134.183 114.239C127.714 113.276 130.014 106.193 121.74 109.882C120.146 110.898 121.976 112.387 121.738 113.592C121.517 114.541 120.976 115.043 120.761 116.056C120.306 117.762 120.442 118.805 118.796 119.66C117.19 120.441 115.896 120.291 114.499 120.722C108.417 123.762 109.54 123.377 103.85 120.824C100.387 119.456 99.245 122.473 98.0832 121.67C96.7533 120.653 95.7777 119.757 94.2492 119.415C90.9938 118.68 92.519 123.487 90.517 123.436C88.4387 123.435 86.5013 122.043 85.0217 122.335C76.4057 124.883 80.7716 122.771 75.6673 122.549C75.1392 122.504 74.9026 122.421 74.4746 122.056C72.0694 119.542 71.8359 120.225 69.6254 119.5C66.6796 118.147 67.8937 113.577 66.0469 111.551C65.0059 110.347 63.1571 110.04 61.7948 109.176C60.9614 108.763 60.6698 107.752 60.2416 107C58.7448 105.229 55.2197 105.081 53.0563 104.679C48.5601 103.881 47.4406 103.025 45.3413 107.208C45.197 107.764 45.0313 108.871 44.8351 108.896C44.2963 108.999 41.9388 107.7 41.5111 107.636C33.7296 105.468 37.0498 103.262 33.3846 100.532C30.2945 98.7708 25.551 100.518 24.334 103.102C23.6701 104.233 24.3062 106.237 23.6708 107.611C22.4692 109.31 20.6451 107.353 19.3097 109.471C18.1476 111.023 17.0772 113.898 16.1717 115.072Z" fill="#C96744"/>
</svg>
